<mxfile host="app.diagrams.net" agent="Mozilla/5.0 (Windows NT 10.0; Win64; x64) AppleWebKit/537.36 (KHTML, like Gecko) Chrome/134.0.0.0 YaBrowser/25.4.0.0 Safari/537.36" version="27.1.4">
  <diagram id="C5RBs43oDa-KdzZeNtuy" name="Page-1">
    <mxGraphModel dx="1869" dy="632" grid="1" gridSize="10" guides="1" tooltips="1" connect="1" arrows="1" fold="1" page="1" pageScale="1" pageWidth="827" pageHeight="1169" math="0" shadow="0">
      <root>
        <mxCell id="WIyWlLk6GJQsqaUBKTNV-0" />
        <mxCell id="WIyWlLk6GJQsqaUBKTNV-1" parent="WIyWlLk6GJQsqaUBKTNV-0" />
        <mxCell id="VTyr_z-7UanR8P_Uged1-1" style="edgeStyle=orthogonalEdgeStyle;rounded=0;orthogonalLoop=1;jettySize=auto;html=1;entryX=0.5;entryY=0;entryDx=0;entryDy=0;" parent="WIyWlLk6GJQsqaUBKTNV-1" source="WIyWlLk6GJQsqaUBKTNV-3" target="VTyr_z-7UanR8P_Uged1-0" edge="1">
          <mxGeometry relative="1" as="geometry" />
        </mxCell>
        <mxCell id="WIyWlLk6GJQsqaUBKTNV-3" value="Начало" style="rounded=1;whiteSpace=wrap;html=1;fontSize=12;glass=0;strokeWidth=1;shadow=0;arcSize=50;" parent="WIyWlLk6GJQsqaUBKTNV-1" vertex="1">
          <mxGeometry x="160" y="117" width="160" height="40" as="geometry" />
        </mxCell>
        <mxCell id="VTyr_z-7UanR8P_Uged1-4" style="edgeStyle=orthogonalEdgeStyle;rounded=0;orthogonalLoop=1;jettySize=auto;html=1;entryX=0.5;entryY=0;entryDx=0;entryDy=0;" parent="WIyWlLk6GJQsqaUBKTNV-1" source="VTyr_z-7UanR8P_Uged1-0" target="VTyr_z-7UanR8P_Uged1-3" edge="1">
          <mxGeometry relative="1" as="geometry" />
        </mxCell>
        <mxCell id="VTyr_z-7UanR8P_Uged1-0" value="Результат_теста = ложь" style="rounded=0;whiteSpace=wrap;html=1;" parent="WIyWlLk6GJQsqaUBKTNV-1" vertex="1">
          <mxGeometry x="160" y="174" width="160" height="50" as="geometry" />
        </mxCell>
        <mxCell id="VTyr_z-7UanR8P_Uged1-9" style="edgeStyle=orthogonalEdgeStyle;rounded=0;orthogonalLoop=1;jettySize=auto;html=1;entryX=0.5;entryY=0;entryDx=0;entryDy=0;" parent="WIyWlLk6GJQsqaUBKTNV-1" source="VTyr_z-7UanR8P_Uged1-2" target="VTyr_z-7UanR8P_Uged1-11" edge="1">
          <mxGeometry relative="1" as="geometry">
            <mxPoint x="260" y="400" as="targetPoint" />
            <Array as="points" />
          </mxGeometry>
        </mxCell>
        <mxCell id="VTyr_z-7UanR8P_Uged1-2" value="уровень_норм, нормализ_схемы = метод(отношение, ожид_уровень_норм)" style="rounded=0;whiteSpace=wrap;html=1;" parent="WIyWlLk6GJQsqaUBKTNV-1" vertex="1">
          <mxGeometry x="160" y="300" width="160" height="70" as="geometry" />
        </mxCell>
        <mxCell id="VTyr_z-7UanR8P_Uged1-5" style="edgeStyle=orthogonalEdgeStyle;rounded=0;orthogonalLoop=1;jettySize=auto;html=1;entryX=0.5;entryY=0;entryDx=0;entryDy=0;" parent="WIyWlLk6GJQsqaUBKTNV-1" source="VTyr_z-7UanR8P_Uged1-3" target="VTyr_z-7UanR8P_Uged1-2" edge="1">
          <mxGeometry relative="1" as="geometry" />
        </mxCell>
        <mxCell id="VTyr_z-7UanR8P_Uged1-3" value="Вход: отношение;&lt;br&gt;&lt;div&gt;ожид_уровень_норм&lt;/div&gt;" style="shape=parallelogram;perimeter=parallelogramPerimeter;whiteSpace=wrap;html=1;fixedSize=1;" parent="WIyWlLk6GJQsqaUBKTNV-1" vertex="1">
          <mxGeometry x="160" y="240" width="160" height="40" as="geometry" />
        </mxCell>
        <mxCell id="VTyr_z-7UanR8P_Uged1-13" style="edgeStyle=orthogonalEdgeStyle;rounded=0;orthogonalLoop=1;jettySize=auto;html=1;entryX=0.5;entryY=0;entryDx=0;entryDy=0;exitX=0;exitY=0.5;exitDx=0;exitDy=0;" parent="WIyWlLk6GJQsqaUBKTNV-1" source="VTyr_z-7UanR8P_Uged1-11" target="VTyr_z-7UanR8P_Uged1-14" edge="1">
          <mxGeometry relative="1" as="geometry">
            <mxPoint x="75" y="535" as="targetPoint" />
            <mxPoint x="140" y="480" as="sourcePoint" />
          </mxGeometry>
        </mxCell>
        <mxCell id="VTyr_z-7UanR8P_Uged1-27" value="Да" style="edgeLabel;html=1;align=center;verticalAlign=middle;resizable=0;points=[];" parent="VTyr_z-7UanR8P_Uged1-13" vertex="1" connectable="0">
          <mxGeometry x="0.7165" y="-1" relative="1" as="geometry">
            <mxPoint x="10" y="-21" as="offset" />
          </mxGeometry>
        </mxCell>
        <mxCell id="QVDhNOKg3F5BOrHoQnap-2" style="edgeStyle=orthogonalEdgeStyle;rounded=0;orthogonalLoop=1;jettySize=auto;html=1;fontSize=12;startSize=8;endSize=8;exitX=1;exitY=0.5;exitDx=0;exitDy=0;" edge="1" parent="WIyWlLk6GJQsqaUBKTNV-1" source="VTyr_z-7UanR8P_Uged1-11">
          <mxGeometry relative="1" as="geometry">
            <mxPoint x="220" y="730" as="targetPoint" />
            <Array as="points">
              <mxPoint x="340" y="435" />
              <mxPoint x="340" y="730" />
            </Array>
          </mxGeometry>
        </mxCell>
        <mxCell id="VTyr_z-7UanR8P_Uged1-11" value="уровень_норм ==&amp;nbsp;&lt;div&gt;ист_уровень_норм ?&lt;/div&gt;" style="rhombus;whiteSpace=wrap;html=1;" parent="WIyWlLk6GJQsqaUBKTNV-1" vertex="1">
          <mxGeometry x="160" y="390" width="160" height="90" as="geometry" />
        </mxCell>
        <mxCell id="VTyr_z-7UanR8P_Uged1-16" style="edgeStyle=orthogonalEdgeStyle;rounded=0;orthogonalLoop=1;jettySize=auto;html=1;entryX=0.5;entryY=0;entryDx=0;entryDy=0;" parent="WIyWlLk6GJQsqaUBKTNV-1" source="VTyr_z-7UanR8P_Uged1-14" target="VTyr_z-7UanR8P_Uged1-15" edge="1">
          <mxGeometry relative="1" as="geometry">
            <mxPoint x="97.5" y="605" as="targetPoint" />
          </mxGeometry>
        </mxCell>
        <mxCell id="VTyr_z-7UanR8P_Uged1-14" value="Вычислить ист_ур_норм_схем для нормализ_схемы" style="rounded=0;whiteSpace=wrap;html=1;" parent="WIyWlLk6GJQsqaUBKTNV-1" vertex="1">
          <mxGeometry y="460" width="160" height="60" as="geometry" />
        </mxCell>
        <mxCell id="VTyr_z-7UanR8P_Uged1-17" style="edgeStyle=orthogonalEdgeStyle;rounded=0;orthogonalLoop=1;jettySize=auto;html=1;entryX=0.5;entryY=0;entryDx=0;entryDy=0;exitX=0;exitY=0.5;exitDx=0;exitDy=0;" parent="WIyWlLk6GJQsqaUBKTNV-1" source="VTyr_z-7UanR8P_Uged1-15" target="VTyr_z-7UanR8P_Uged1-18" edge="1">
          <mxGeometry relative="1" as="geometry">
            <mxPoint x="-45" y="690" as="targetPoint" />
            <mxPoint x="-8.75" y="625" as="sourcePoint" />
            <Array as="points">
              <mxPoint x="-20" y="592" />
            </Array>
          </mxGeometry>
        </mxCell>
        <mxCell id="VTyr_z-7UanR8P_Uged1-29" value="Да" style="edgeLabel;html=1;align=center;verticalAlign=middle;resizable=0;points=[];" parent="VTyr_z-7UanR8P_Uged1-17" vertex="1" connectable="0">
          <mxGeometry x="-0.2557" relative="1" as="geometry">
            <mxPoint x="7" y="-19" as="offset" />
          </mxGeometry>
        </mxCell>
        <mxCell id="QVDhNOKg3F5BOrHoQnap-0" style="edgeStyle=orthogonalEdgeStyle;rounded=0;orthogonalLoop=1;jettySize=auto;html=1;fontSize=12;startSize=8;endSize=8;exitX=1;exitY=0.5;exitDx=0;exitDy=0;" edge="1" parent="WIyWlLk6GJQsqaUBKTNV-1" source="VTyr_z-7UanR8P_Uged1-15">
          <mxGeometry relative="1" as="geometry">
            <mxPoint x="190" y="715" as="targetPoint" />
          </mxGeometry>
        </mxCell>
        <mxCell id="VTyr_z-7UanR8P_Uged1-15" value="ист_ур_норм_схем&amp;nbsp;&lt;span style=&quot;background-color: transparent; color: light-dark(rgb(0, 0, 0), rgb(255, 255, 255));&quot;&gt;==&lt;/span&gt;&lt;div&gt;&lt;div&gt;ожид_уровень_норм ?&lt;/div&gt;&lt;/div&gt;" style="rhombus;whiteSpace=wrap;html=1;" parent="WIyWlLk6GJQsqaUBKTNV-1" vertex="1">
          <mxGeometry y="540" width="160" height="105" as="geometry" />
        </mxCell>
        <mxCell id="VTyr_z-7UanR8P_Uged1-20" style="edgeStyle=orthogonalEdgeStyle;rounded=0;orthogonalLoop=1;jettySize=auto;html=1;entryX=0.5;entryY=0;entryDx=0;entryDy=0;exitX=0.5;exitY=1;exitDx=0;exitDy=0;" parent="WIyWlLk6GJQsqaUBKTNV-1" source="VTyr_z-7UanR8P_Uged1-18" target="VTyr_z-7UanR8P_Uged1-21" edge="1">
          <mxGeometry relative="1" as="geometry">
            <mxPoint x="-40" y="770" as="targetPoint" />
            <Array as="points">
              <mxPoint x="-20" y="715" />
              <mxPoint x="220" y="715" />
            </Array>
          </mxGeometry>
        </mxCell>
        <mxCell id="VTyr_z-7UanR8P_Uged1-18" value="Результат_теста = истина" style="rounded=0;whiteSpace=wrap;html=1;" parent="WIyWlLk6GJQsqaUBKTNV-1" vertex="1">
          <mxGeometry x="-100" y="655" width="160" height="50" as="geometry" />
        </mxCell>
        <mxCell id="QVDhNOKg3F5BOrHoQnap-5" style="edgeStyle=none;curved=1;rounded=0;orthogonalLoop=1;jettySize=auto;html=1;entryX=0.5;entryY=0;entryDx=0;entryDy=0;fontSize=12;startSize=8;endSize=8;" edge="1" parent="WIyWlLk6GJQsqaUBKTNV-1" source="VTyr_z-7UanR8P_Uged1-21" target="QVDhNOKg3F5BOrHoQnap-4">
          <mxGeometry relative="1" as="geometry" />
        </mxCell>
        <mxCell id="VTyr_z-7UanR8P_Uged1-21" value="Вернуть результат_теста" style="rounded=0;whiteSpace=wrap;html=1;" parent="WIyWlLk6GJQsqaUBKTNV-1" vertex="1">
          <mxGeometry x="140" y="746" width="160" height="32" as="geometry" />
        </mxCell>
        <mxCell id="QVDhNOKg3F5BOrHoQnap-1" value="Нет" style="edgeLabel;html=1;align=center;verticalAlign=middle;resizable=0;points=[];" vertex="1" connectable="0" parent="WIyWlLk6GJQsqaUBKTNV-1">
          <mxGeometry x="180" y="585" as="geometry" />
        </mxCell>
        <mxCell id="QVDhNOKg3F5BOrHoQnap-3" value="Нет" style="edgeLabel;html=1;align=center;verticalAlign=middle;resizable=0;points=[];" vertex="1" connectable="0" parent="WIyWlLk6GJQsqaUBKTNV-1">
          <mxGeometry x="330" y="424" as="geometry" />
        </mxCell>
        <mxCell id="QVDhNOKg3F5BOrHoQnap-4" value="Конец" style="rounded=1;whiteSpace=wrap;html=1;fontSize=12;glass=0;strokeWidth=1;shadow=0;arcSize=50;" vertex="1" parent="WIyWlLk6GJQsqaUBKTNV-1">
          <mxGeometry x="140" y="800" width="160" height="40" as="geometry" />
        </mxCell>
      </root>
    </mxGraphModel>
  </diagram>
</mxfile>
